<svg xmlns="http://www.w3.org/2000/svg" width="195.992" height="40.797" viewBox="0 0 195.992 40.797"><defs><style>.a,.c,.d,.e,.f,.g{fill:none;stroke:#000;}.a,.g{stroke-width:1.561px;}.b{fill:#348441;}.c,.d,.e,.f,.g{stroke-linecap:round;stroke-linejoin:round;}.c{stroke-width:1.561px;}.d{stroke-width:1.561px;}.e{stroke-width:1.561px;}.f{stroke-width:1.561px;}.h{fill:#fe3b0f;}</style></defs><g transform="translate(0.809 0.797)"><g transform="translate(64.054 12.417)"><path d="M178.183,145.52a28.607,28.607,0,0,1,10.046,3.453c-.205.569-.742,2.114-.852,2.461a26.419,26.419,0,0,0-9.667-3.517Zm.221-8.862a24.462,24.462,0,0,1,8.42,2.271,22.372,22.372,0,0,0-.44,2.6,23.875,23.875,0,0,0-8.2-2.507Zm.947,4.51a20.4,20.4,0,0,1,6.876,2.192,20.729,20.729,0,0,0-.458,2.507,17.222,17.222,0,0,0-6.8-2.4Z" transform="translate(-177.71 -136.484)"/><path d="M197.073,140.92a4.84,4.84,0,0,0,1.357-.142l1.529,1.089c-.268.5-1.419,2.743-1.671,3.185a12.618,12.618,0,0,1-6.86,6.056,10.744,10.744,0,0,0-1.72-2.034,10.017,10.017,0,0,0,6.609-5.851h-9.463v-2.3Zm.931-3.674V139.5h-9.148v-2.254Z" transform="translate(-174.831 -136.299)"/><path d="M206.833,150.94H204.12v-7.175A28.521,28.521,0,0,1,199.751,146a7.694,7.694,0,0,0-1.892-2.255,22.025,22.025,0,0,0,10.74-7.223l2.1,1.655a.366.366,0,0,1,.189.3c0,.142-.126.205-.252.205a.984.984,0,0,1-.316-.047,31.251,31.251,0,0,1-3.484,3.233Z" transform="translate(-171.365 -136.526)"/><path d="M220.658,137.591a2.6,2.6,0,0,0,.884-.142l1.75,1.609c-.158.221-.205.3-.568.819a35.836,35.836,0,0,1-4.242,5.2,7.932,7.932,0,0,0-1.813-1.734,16.894,16.894,0,0,0,2.948-3.375H209.067v-2.381Zm-3.817,3c.11,0,.284.016.284.189,0,.158-.2.237-.284.268a15.463,15.463,0,0,1-.819,4.715,9.88,9.88,0,0,1-3.958,4.668,13.066,13.066,0,0,0-2.208-1.671c2.208-1.262,4.588-2.981,4.3-8.327Z" transform="translate(-167.836 -136.235)"/><path d="M225.273,137.693c.174.016.363.016.363.221,0,.189-.205.268-.268.3v3.847c0,4.147-2.018,5.9-3.912,7.522a8.016,8.016,0,0,0-2.129-1.719,8.431,8.431,0,0,0,2.556-2.429,5.612,5.612,0,0,0,.772-3.232v-4.638Zm4.021-.126c.174.016.3.016.3.174,0,.142-.158.221-.3.284v7.68a16.954,16.954,0,0,0,4.085-4.131,7.308,7.308,0,0,0,1.214,2.364,27.142,27.142,0,0,1-4.431,4.369c-.631.458-1.247.945-1.862,1.419l-1.671-1.072c.032-.426.063-.82.063-1.262v-9.967Z" transform="translate(-164.606 -136.243)"/><path d="M242.647,151.054h-2.177v-3.913a12.235,12.235,0,0,1-2.806,2.986,5.477,5.477,0,0,0-1.7-1.408,10.089,10.089,0,0,0,3.833-4.238h-2.381a5.229,5.229,0,0,0-1.041,1.531,7.085,7.085,0,0,1-.93-.99v6.033h-2.146v-4.78a10.588,10.588,0,0,1-1.119,1.887,4.856,4.856,0,0,0-1.387-2.026,10.47,10.47,0,0,0,2.206-4.7h-1.655V139.36h1.955v-2.492l2.146.062c.078,0,.33,0,.33.2,0,.093-.063.185-.33.325v1.9h1.45v1.531a7.8,7.8,0,0,0,1.151-3.325l1.8.387c.22.046.3.124.3.216,0,.109-.079.155-.3.233a7.944,7.944,0,0,1-.221.9h.851v-2.49l2.177.062c.221,0,.363.078.363.2,0,.139-.175.263-.363.31V139.3h2.916v1.9h-2.916v1.331h3.216v1.95h-2.586a7.773,7.773,0,0,0,3.2,3.465,5.015,5.015,0,0,0-1.373,1.855,8.928,8.928,0,0,1-2.459-2.722Zm-7.207-9.39a7.635,7.635,0,0,0,1.861,2.4v-1.532h3.169V141.2h-1.545a6.19,6.19,0,0,1-.584,1.161,4.052,4.052,0,0,0-1.987-.681c.063-.062.126-.154.205-.247H235.44Z" transform="translate(-160.997 -136.438)"/><path d="M248.135,148.168c1.2-.2,2.129-.372,2.839-.51a6.065,6.065,0,0,0-.205,2.026,68.084,68.084,0,0,1-6.828,1.176c-.032.17-.08.448-.331.448-.126,0-.205-.093-.252-.309l-.473-2.166c.8-.078,1.7-.171,2.744-.295v-3.156h-2.365v-2.01h6.97v2.01h-2.1Zm5.945-11.479a11.545,11.545,0,0,1,2.381,1.594,7.108,7.108,0,0,0-1.024,1.331h2.05v2.15h-5.094a12.73,12.73,0,0,0,2.05,5.4c.237.356.663.959.915.959.237,0,.347-.293.426-.54.095-.279.205-.6.316-1.006a5.554,5.554,0,0,0,1.861,1.438c-.189.867-.663,2.955-2.318,2.955-1.609,0-4.4-3.032-5.425-9.2h-7.128v-2.15h6.749c-.063-.789-.174-1.995-.189-2.785l2.492.171c.095,0,.268.046.268.185,0,.2-.252.341-.379.4.016.65.032,1.377.095,2.026h2.429a10.969,10.969,0,0,0-1.766-1.331Z" transform="translate(-157.188 -136.475)"/><path d="M266.042,143.54h-7.98v-1.268a14.712,14.712,0,0,1-1.908.99,8.609,8.609,0,0,0-1.751-1.857c2.4-.681,5.52-3.108,6.388-4.811l2.807.341c.095.016.205.062.205.2,0,.171-.205.247-.316.279a14.066,14.066,0,0,0,6.276,3.728,5.383,5.383,0,0,0-1.561,1.934,13.978,13.978,0,0,1-2.16-1.006Zm-10.535,4.935c.458-.014,1.073-.03,2.46-.076a18.018,18.018,0,0,0,.994-2.259h-3.375V144.1H268.55v2.042H265.3a19.038,19.038,0,0,1,3.281,3.481,9.218,9.218,0,0,0-1.83,1.64,16.919,16.919,0,0,0-1.1-1.546c-1.813.293-5.315.757-9.1.99-.128.279-.189.433-.363.433-.126,0-.189-.139-.205-.247Zm9.572-6.975a20.851,20.851,0,0,1-3.107-2.49,26.988,26.988,0,0,1-2.807,2.49Zm-1.01,4.64h-2.05c0,.139-.047.233-.377.295-.285.618-.631,1.206-.978,1.809,1.592-.124,2.539-.231,3.312-.325-.442-.387-.694-.6-.994-.851Z" transform="translate(-153.561 -136.504)"/><path d="M275.622,141.263v-4.409l2.571.109c.079,0,.189.046.189.154,0,.139-.158.2-.316.248v3.9H280.6v2.243h-2.539v5.073h3v2.135h-9.1v-2.135h3.658v-5.073h-2.6v-1.9a10.5,10.5,0,0,1-1.182,1.918,13.63,13.63,0,0,0,2.208,1.887,6.876,6.876,0,0,0-1.45,1.687,8.735,8.735,0,0,1-1.64-1.424v5.352H268.62v-4.114c-.661.526-.9.711-1.277.974a4.479,4.479,0,0,0-1.42-1.917,11.562,11.562,0,0,0,4.21-4.084h-3.469v-2.151h1.955v-2.877l2.335.062c.093,0,.251.032.251.2,0,.078-.063.155-.251.279v2.335h1.513l1.008.96c-.047.092-.251.494-.284.572Z" transform="translate(-149.934 -136.423)"/></g><g transform="translate(25.455 20)"><g transform="translate(-25.455 -20)"><path d="M50.31,18.1C47.122,7.432,40.525.395,34.7,1.714c-2.749.66-5.607,3.079-8.026,6.927-2.419-3.848-5.278-6.267-8.026-6.927C12.707.395,6.11,7.432,3.031,18.1s-1.1,20.561,4.4,22.21,8.8-2.419,12.314-8.466c0,0,2.2,5.168,6.927,5.168S33.6,31.731,33.6,31.731c3.518,6.047,8.246,9.566,12.314,8.466S53.389,28.762,50.31,18.1Z" transform="translate(-0.59 -0.676)"/><path class="a" d="M49.41,17.187C46.332,6.632,39.735-.405,33.8.914c-2.749.66-5.607,3.079-8.026,6.927C23.462,3.993,20.6,1.464,17.744.914,11.917-.405,5.21,6.632,2.131,17.187s-1.1,20.561,4.4,22.21,8.8-2.419,12.314-8.466c0,0,2.2,5.168,6.927,5.168S32.7,30.931,32.7,30.931c3.518,6.047,8.246,9.566,12.314,8.466S52.489,27.852,49.41,17.187Z" transform="translate(-0.679 -0.756)"/><path class="b" d="M49.41,17.187C46.332,6.632,39.735-.405,33.8.914c-2.749.66-5.607,3.079-8.026,6.927C23.462,3.993,20.6,1.464,17.744.914,11.917-.405,5.21,6.632,2.131,17.187s-1.1,20.561,4.4,22.21,8.8-2.419,12.314-8.466c0,0,2.2,5.168,6.927,5.168S32.7,30.931,32.7,30.931c3.518,6.047,8.246,9.566,12.314,8.466S52.489,27.852,49.41,17.187Z" transform="translate(-0.679 -0.756)"/><g transform="translate(5.63 13.683)"><g transform="translate(0.99 0.88)"><path d="M11.538,14l.77,6.817h0L15.936,14h2.859l-1.979,9.456H14.836L16.6,15.979h0l-4.068,7.477H10.988l-.88-7.477h0L8.679,23.456H6.7L8.679,14Z" transform="translate(-6.7 -14)"/><path d="M20.3,16.639l-1.429,6.817H17l1.429-6.817Zm-1.649-1.1L18.979,14h1.869l-.33,1.539Z" transform="translate(-5.675 -14)"/><path d="M22.889,16.42l-.33,1.209h0a2.2,2.2,0,0,1,.99-1.1,2.749,2.749,0,0,1,1.429-.33h.55l-.33,1.869h-.77l-.88.22-.66.55-.44.77-.22.88-.66,2.969H19.7l1.429-7.037Z" transform="translate(-5.406 -13.781)"/><path d="M25.21,17.39l.77-.66.99-.33h2.089l.88.22.66.55a1.429,1.429,0,0,1,.22.88,5.5,5.5,0,0,1-.11,1.1l-.66,2.749v.88a1.429,1.429,0,0,0,.11.44H28.288v-.66a2.309,2.309,0,0,1-.99.66l-1.1.22h-.99L24.55,23l-.44-.55a1.759,1.759,0,0,1-.11-.66,1.979,1.979,0,0,1,.66-1.539,3.518,3.518,0,0,1,1.869-.77h1.979l.44-.22a.88.88,0,0,0,0-.88l-.33-.22h-.77l-.88.22a1.1,1.1,0,0,0-.44.77H24.88a2.419,2.419,0,0,1,.33-1.759Zm2.749,2.859H26.749l-.44.22-.33.33a.99.99,0,0,0-.11.55.66.66,0,0,0,.33.55l.77.22h.77l.55-.33.33-.55.22-.55.22-.66Z" transform="translate(-4.979 -13.761)"/><path d="M33.6,16.639l-1.429,6.817H30.3l1.429-6.817Zm-1.649-1.1L32.279,14h1.869l-.33,1.539Z" transform="translate(-4.352 -14)"/><path d="M34.219,17.39l.77-.66.99-.33h2.089l.88.22.66.55a1.429,1.429,0,0,1,.22.88,5.5,5.5,0,0,1-.11,1.1l-.66,2.749v.88a1.429,1.429,0,0,0,.11.44H37.188v-.66a2.309,2.309,0,0,1-.99.66l-1.1.22h-.99L33.45,23l-.44-.55a1.759,1.759,0,0,1-.11-.66,1.979,1.979,0,0,1,.66-1.539,3.518,3.518,0,0,1,1.869-.77h1.979l.44-.22a.88.88,0,0,0,0-.88l-.33-.22h-.77l-.88.22a1.1,1.1,0,0,0-.44.77H33.78A2.419,2.419,0,0,1,34.219,17.39Zm2.749,2.859H35.649l-.44.22-.33.33a.989.989,0,0,0-.11.55.66.66,0,0,0,.33.55l.77.22h.77l.55-.33.33-.55.22-.55.22-.66Z" transform="translate(-4.093 -13.761)"/><path d="M42.648,14l-1.979,9.456H38.8L40.779,14Z" transform="translate(-3.506 -14)"/></g><g transform="translate(0 0)"><path class="c" d="M10.638,13.2l.77,6.817h0L15.036,13.2h2.859l-1.979,9.456H14.046l1.759-7.477h0l-3.958,7.477H10.088l-.88-7.477h0L7.779,22.656H5.8L7.779,13.2Z" transform="translate(-5.8 -13.2)"/><path class="d" d="M19.5,15.839l-1.429,6.817H16.2l1.429-6.817Zm-1.649-1.1.33-1.539h1.869l-.33,1.539Z" transform="translate(-4.765 -13.2)"/><path class="e" d="M21.989,15.62l-.33,1.209h0a2.2,2.2,0,0,1,.99-1.1,2.749,2.749,0,0,1,1.429-.33h.55l-.33,1.869h-.77l-.88.22-.66.55-.44.77-.22.88-.66,2.969H18.8l1.429-6.817Z" transform="translate(-4.506 -12.981)"/><path class="c" d="M24.419,16.59l.77-.66.99-.33h2.089l.88.22.66.55a1.429,1.429,0,0,1,.22.88,5.5,5.5,0,0,1-.11,1.1l-.66,2.749v.88a1.429,1.429,0,0,0,.11.44H27.388v-.66a2.309,2.309,0,0,1-.99.66l-1.1.22h-.99l-.66-.44-.44-.55a1.759,1.759,0,0,1-.11-.66,1.979,1.979,0,0,1,.66-1.539,3.518,3.518,0,0,1,1.869-.77h1.979l.44-.22a.88.88,0,0,0,0-.88l-.33-.22h-.77l-.88.22a1.1,1.1,0,0,0-.44.77H23.98A2.419,2.419,0,0,1,24.419,16.59Zm2.749,2.749H25.849l-.44.22-.33.33a.99.99,0,0,0-.11.55.66.66,0,0,0,.33.55l.77.22h.77l.55-.33.33-.55.22-.55.22-.66Z" transform="translate(-4.079 -12.961)"/><path class="d" d="M32.7,15.839l-1.429,6.817H29.4l1.429-6.817Zm-1.649-1.1.33-1.539h1.979l-.33,1.539Z" transform="translate(-3.452 -13.2)"/><path class="f" d="M33.419,16.59l.77-.66.99-.33h2.089l.88.22.66.55a1.429,1.429,0,0,1,.22.88,5.5,5.5,0,0,1-.11,1.1l-.66,2.749v.88a1.429,1.429,0,0,0,.11.44H36.388v-.66a2.309,2.309,0,0,1-.99.66l-1.1.22h-.99l-.66-.44-.44-.55a1.759,1.759,0,0,1-.11-.66,1.979,1.979,0,0,1,.66-1.539,3.518,3.518,0,0,1,1.869-.77h1.979l.44-.22a.88.88,0,0,0,0-.88l-.33-.22h-.77l-.88.22a1.1,1.1,0,0,0-.44.77H32.98a2.419,2.419,0,0,1,.44-1.759Zm2.749,2.749H34.849l-.44.22-.33.33a.99.99,0,0,0-.11.55.66.66,0,0,0,.33.55l.77.22h.77l.55-.33.33-.55.22-.55.22-.66Z" transform="translate(-3.183 -12.961)"/><path class="g" d="M41.748,13.2l-1.979,9.456H37.9L39.879,13.2Z" transform="translate(-2.606 -13.2)"/></g><g transform="translate(0 0)"><path class="h" d="M10.638,13.2l.77,6.817h0L15.036,13.2h2.859l-1.979,9.456H14.046l1.759-7.477h0l-3.958,7.477H10.088l-.88-7.477h0L7.779,22.656H5.8L7.779,13.2Z" transform="translate(-5.8 -13.2)"/><path class="h" d="M19.5,15.839l-1.429,6.817H16.2l1.429-6.817Zm-1.649-1.1.33-1.539h1.869l-.33,1.539Z" transform="translate(-4.765 -13.2)"/><path class="h" d="M21.989,15.62l-.33,1.209h0a2.2,2.2,0,0,1,.99-1.1,2.749,2.749,0,0,1,1.429-.33h.55l-.33,1.869h-.77l-.88.22-.66.55-.44.77-.22.88-.66,2.969H18.8l1.429-6.817Z" transform="translate(-4.506 -12.981)"/><path class="h" d="M24.419,16.59l.77-.66.99-.33h2.089l.88.22.66.55a1.429,1.429,0,0,1,.22.88,5.5,5.5,0,0,1-.11,1.1l-.66,2.749v.88a1.429,1.429,0,0,0,.11.44H27.388v-.66a2.309,2.309,0,0,1-.99.66l-1.1.22h-.99l-.66-.44-.44-.55a1.759,1.759,0,0,1-.11-.66,1.979,1.979,0,0,1,.66-1.539,3.518,3.518,0,0,1,1.869-.77h1.979l.44-.22a.88.88,0,0,0,0-.88l-.33-.22h-.77l-.88.22a1.1,1.1,0,0,0-.44.77H23.98A2.419,2.419,0,0,1,24.419,16.59Zm2.749,2.749H25.849l-.44.22-.33.33a.99.99,0,0,0-.11.55.66.66,0,0,0,.33.55l.77.22h.77l.55-.33.33-.55.22-.55.22-.66Z" transform="translate(-4.079 -12.961)"/><path class="h" d="M32.7,15.839l-1.429,6.817H29.4l1.429-6.817Zm-1.649-1.1.33-1.539h1.979l-.33,1.539Z" transform="translate(-3.452 -13.2)"/><path class="h" d="M33.419,16.59l.77-.66.99-.33h2.089l.88.22.66.55a1.429,1.429,0,0,1,.22.88,5.5,5.5,0,0,1-.11,1.1l-.66,2.749v.88a1.429,1.429,0,0,0,.11.44H36.388v-.66a2.309,2.309,0,0,1-.99.66l-1.1.22h-.99l-.66-.44-.44-.55a1.759,1.759,0,0,1-.11-.66,1.979,1.979,0,0,1,.66-1.539,3.518,3.518,0,0,1,1.869-.77h1.979l.44-.22a.88.88,0,0,0,0-.88l-.33-.22h-.77l-.88.22a1.1,1.1,0,0,0-.44.77H32.98a2.419,2.419,0,0,1,.44-1.759Zm2.749,2.749H34.849l-.44.22-.33.33a.99.99,0,0,0-.11.55.66.66,0,0,0,.33.55l.77.22h.77l.55-.33.33-.55.22-.55.22-.66Z" transform="translate(-3.183 -12.961)"/><path class="h" d="M41.748,13.2l-1.979,9.456H37.9L39.879,13.2Z" transform="translate(-2.606 -13.2)"/></g></g></g></g></g></svg>