<svg xmlns="http://www.w3.org/2000/svg" width="12.857" height="15" viewBox="0 0 12.857 15"><defs><style>.a{fill:#fffefe;}.b{fill:#b43331;}.c{fill:#040000;opacity:0.08;}.d{fill:#bbbbba;}</style></defs><g transform="translate(-36.565)"><path class="a" d="M60.32,3.454V15H47.791V0h9.077L58.476,1.61Z" transform="translate(-10.897 -0.002)"/><rect class="b" width="6.009" height="2.689" transform="translate(36.565 1.005)"/><g transform="translate(37.534 1.559)"><g transform="translate(0)"><path class="a" d="M70.838,53.55a.5.5,0,0,0-.287-.285.629.629,0,0,0-.239-.042h-.66v1.7h.333v-.643h.327a.629.629,0,0,0,.239-.042.51.51,0,0,0,.177-.115.492.492,0,0,0,.11-.17.575.575,0,0,0,0-.409Zm-.36.373a.255.255,0,0,1-.181.064h-.311v-.468H70.3a.247.247,0,0,1,.181.066.255.255,0,0,1,0,.338Z" transform="translate(-69.652 -53.223)"/><path class="a" d="M123.655,53.882c0-.06,0-.113-.011-.161a.63.63,0,0,0-.033-.135.481.481,0,0,0-.062-.115.562.562,0,0,0-.214-.19.694.694,0,0,0-.3-.06h-.614v1.7h.614a.694.694,0,0,0,.3-.06.562.562,0,0,0,.214-.19.481.481,0,0,0,.062-.115.632.632,0,0,0,.033-.135c.007-.049.009-.1.011-.161s0-.121,0-.192S123.657,53.94,123.655,53.882Zm-.333.364a.953.953,0,0,1-.009.126.382.382,0,0,1-.02.086.245.245,0,0,1-.038.066.3.3,0,0,1-.25.1h-.254V53.518h.254a.3.3,0,0,1,.25.106.232.232,0,0,1,.038.064.4.4,0,0,1,.02.088.917.917,0,0,1,.009.124c0,.049,0,.108,0,.174S123.323,54.2,123.321,54.247Z" transform="translate(-120.874 -53.222)"/><path class="a" d="M175.934,53.518v-.3H174.81v1.7h.333v-.691h.674v-.3h-.674v-.42Z" transform="translate(-171.729 -53.222)"/></g><g transform="translate(0 0)"><path class="a" d="M70.838,53.55a.5.5,0,0,0-.287-.285.629.629,0,0,0-.239-.042h-.66v1.7h.333v-.643h.327a.629.629,0,0,0,.239-.042.51.51,0,0,0,.177-.115.492.492,0,0,0,.11-.17.575.575,0,0,0,0-.409Zm-.36.373a.255.255,0,0,1-.181.064h-.311v-.468H70.3a.247.247,0,0,1,.181.066.255.255,0,0,1,0,.338Z" transform="translate(-69.652 -53.223)"/></g></g><path class="c" d="M60.32,56.725V68.273H47.791V65.566l5.857-5.857.347-.347.192-.192.32-.32.38-.38,3.589-3.589Z" transform="translate(-10.897 -53.273)"/><path class="d" d="M361.052,3.452H357.6V0Z" transform="translate(-311.63)"/><g transform="translate(38.298 4.344)"><path class="b" d="M105.061,154.794a1.444,1.444,0,0,0-.3-.36,2.136,2.136,0,0,0-.356-.258,4.7,4.7,0,0,0-2.372-.475h-.106c-.057-.053-.117-.106-.179-.161a4.736,4.736,0,0,1-.965-1.186,6.5,6.5,0,0,0,.689-2.838,1.522,1.522,0,0,0-.06-.384,1.244,1.244,0,0,0-.265-.5l0,0a1.01,1.01,0,0,0-.749-.347.939.939,0,0,0-.727.345,1.369,1.369,0,0,0-.289.879,7.539,7.539,0,0,0,.13,1.533c.009.038.015.075.024.113a5.768,5.768,0,0,0,.406,1.219c-.208.422-.417.786-.563,1.034-.11.188-.232.384-.358.581a8.662,8.662,0,0,0-1.469.38,3.774,3.774,0,0,0-1.349.786,1.55,1.55,0,0,0-.426.645.972.972,0,0,0,.013.671.953.953,0,0,0,.4.464,1.019,1.019,0,0,0,.139.068,1.213,1.213,0,0,0,.457.088,1.654,1.654,0,0,0,1.082-.451,11.323,11.323,0,0,0,1.6-1.961c.3-.046.632-.086,1-.126.437-.044.824-.071,1.175-.084l.311.278a12.457,12.457,0,0,0,1.352,1.1s0,0,0,0a3.3,3.3,0,0,0,.437.247,1.156,1.156,0,0,0,.492.115.992.992,0,0,0,.576-.181.915.915,0,0,0,.345-.492A.981.981,0,0,0,105.061,154.794Zm-4.883-4.424a6.751,6.751,0,0,1-.04-.859c0-.285.108-.477.261-.477.115,0,.236.1.292.3a.919.919,0,0,1,.029.205c0,.093,0,.19,0,.289a4.365,4.365,0,0,1-.146.9,6.2,6.2,0,0,1-.2.643A5.406,5.406,0,0,1,100.179,150.37Zm-3.684,5.813c-.038-.093,0-.272.234-.492a3.782,3.782,0,0,1,1.667-.8c-.146.2-.289.38-.428.545a5.933,5.933,0,0,1-.6.636.951.951,0,0,1-.492.252.565.565,0,0,1-.086.007A.3.3,0,0,1,96.495,156.183Zm3.529-2.348.015-.024-.024,0a.141.141,0,0,1,.018-.031c.093-.157.21-.358.336-.59l.011.024.029-.06c.093.133.194.263.3.389.051.06.1.117.157.174l-.035,0,.031.029c-.091.007-.185.015-.28.024l-.183.018Zm3.717,1.378a8.144,8.144,0,0,1-.919-.72,3.039,3.039,0,0,1,1.206.333,1.139,1.139,0,0,1,.285.221c.106.113.144.214.124.283a.184.184,0,0,1-.19.115.394.394,0,0,1-.172-.042,2.87,2.87,0,0,1-.32-.181S103.745,155.218,103.741,155.214Z" transform="translate(-95.726 -148.279)"/></g></g></svg>